<?xml version="1.0" standalone="no"?>
<!DOCTYPE svg PUBLIC "-//W3C//DTD SVG 20010904//EN"
 "http://www.w3.org/TR/2001/REC-SVG-20010904/DTD/svg10.dtd">
<svg version="1.0" xmlns="http://www.w3.org/2000/svg"
 width="1424.000000pt" height="1424.000000pt" viewBox="0 0 1424.000000 1424.000000"
 preserveAspectRatio="xMidYMid meet">
<metadata>
Created by potrace 1.14, written by Peter Selinger 2001-2017
</metadata>
<g transform="translate(0.000000,1424.000000) scale(0.100000,-0.100000)"
fill="#000000" stroke="none">
<path d="M770 13787 c-3 -3 -25 -8 -50 -11 -61 -7 -149 -31 -229 -63 -60 -23
-160 -70 -170 -79 -2 -2 23 -41 56 -86 157 -217 308 -467 458 -760 l90 -176
-25 -43 c-83 -148 -335 -645 -384 -759 -16 -36 -46 -102 -67 -148 -22 -46 -39
-85 -39 -87 0 -3 -14 -34 -30 -71 -17 -37 -29 -68 -27 -70 2 -3 33 5 68 16
115 38 213 49 394 46 146 -3 184 -7 270 -30 127 -33 262 -84 539 -203 167 -71
221 -91 228 -81 10 17 10 10 13 961 1 444 5 810 8 813 3 3 11 7 19 8 7 2 36
13 63 25 28 12 91 40 141 62 117 51 271 140 365 211 118 90 351 328 321 328
-6 0 -46 -14 -89 -30 -148 -58 -274 -81 -438 -81 -202 -1 -274 16 -765 176
-220 72 -356 111 -415 120 -60 8 -299 18 -305 12z"/>
<path d="M12997 13765 c-60 -13 -130 -31 -155 -39 -26 -8 -159 -51 -297 -95
-358 -115 -415 -130 -553 -147 -108 -13 -282 -5 -382 18 -25 5 -55 12 -68 14
-12 2 -65 20 -118 39 -53 19 -98 35 -101 35 -21 0 191 -217 292 -299 136 -112
293 -201 513 -292 57 -23 106 -47 108 -53 2 -6 5 -410 6 -898 2 -489 4 -888 5
-888 1 0 95 41 210 91 259 114 408 172 523 204 125 35 135 36 315 40 175 3
254 -4 360 -36 39 -11 78 -22 87 -25 14 -4 16 -1 9 23 -22 72 -387 825 -519
1069 l-49 92 31 58 c18 33 53 97 77 144 105 196 161 297 193 349 14 22 26 43
26 46 0 8 126 198 207 312 l73 103 -25 16 c-30 20 -149 69 -230 95 -156 51
-371 61 -538 24z"/>
<path d="M2850 13544 c-1 -15 -141 -167 -231 -249 -138 -127 -230 -188 -445
-295 -123 -61 -155 -84 -138 -99 23 -22 533 -175 714 -215 108 -24 108 -24
112 -2 6 32 0 857 -6 864 -4 3 -6 1 -6 -4z"/>
<path d="M11241 13125 c1 -236 5 -437 8 -446 5 -14 19 -13 121 13 63 15 124
30 135 32 90 19 470 130 497 146 10 6 24 10 31 10 8 0 21 8 31 19 21 23 23 22
-142 106 -73 36 -172 93 -221 125 -143 94 -209 153 -410 370 l-51 55 1 -430z"/>
<path d="M6728 13375 c-2 -1 -48 -5 -103 -9 -55 -3 -111 -8 -125 -10 -14 -3
-52 -7 -85 -10 -83 -9 -129 -15 -205 -27 -36 -6 -78 -13 -95 -15 -16 -3 -52
-9 -80 -15 -86 -16 -99 -19 -135 -25 -69 -12 -357 -85 -475 -120 -185 -56
-367 -122 -575 -209 -173 -73 -487 -232 -494 -251 -3 -8 -2 -14 2 -15 4 0 16
-2 27 -5 33 -7 113 16 197 58 68 33 230 107 333 153 105 46 459 172 533 190 9
3 67 19 127 35 104 30 328 82 405 95 19 3 53 10 75 15 22 5 63 12 90 15 28 4
57 8 65 10 25 7 69 13 215 31 90 10 216 14 535 14 419 1 500 -3 730 -36 60 -9
82 -12 175 -28 103 -18 102 -18 210 -41 44 -10 99 -21 123 -26 24 -5 47 -11
51 -13 4 -3 21 -8 37 -11 16 -3 54 -12 84 -20 30 -9 78 -22 105 -30 252 -70
593 -205 885 -350 153 -76 156 -76 215 -71 143 15 156 18 144 32 -15 18 -402
209 -534 264 -55 23 -113 47 -130 55 -25 11 -362 122 -470 155 -135 41 -576
137 -715 155 -25 3 -52 8 -60 10 -8 2 -44 7 -80 10 -36 4 -67 8 -70 10 -3 1
-50 6 -105 10 -55 4 -118 9 -140 11 -52 4 -683 13 -687 9z"/>
<path d="M6440 13175 c-47 -8 -112 -17 -145 -20 -33 -4 -63 -9 -66 -10 -3 -2
-25 -6 -50 -9 -24 -4 -58 -8 -75 -10 -190 -26 -585 -126 -816 -206 -191 -65
-666 -265 -656 -275 2 -2 35 -6 73 -9 39 -4 90 -8 115 -11 196 -18 172 -21
330 38 200 76 188 74 201 40 25 -64 17 -93 -25 -93 -17 -1 -18 -2 -6 -9 26
-15 519 -38 565 -27 14 4 25 13 25 21 0 22 60 42 174 59 21 4 48 8 60 11 96
22 175 28 191 15 18 -15 15 -49 -6 -61 -14 -7 -196 -40 -236 -42 -7 0 -10 -4
-7 -8 6 -11 1718 -9 1735 2 10 6 7 9 -13 9 -49 0 -58 9 -58 57 0 38 3 44 18
39 9 -3 33 -8 52 -11 19 -3 55 -11 80 -16 25 -6 56 -13 70 -15 14 -3 70 -17
125 -31 93 -25 113 -27 280 -24 99 1 196 4 215 5 19 2 52 4 72 5 32 1 39 6 55
39 23 48 49 51 127 15 54 -25 72 -28 161 -28 107 0 286 13 294 21 8 8 -13 22
-96 63 -244 121 -632 260 -933 336 -99 24 -190 47 -202 49 -13 2 -70 13 -128
25 -123 24 -152 29 -200 36 -19 3 -51 8 -70 11 -19 3 -57 8 -85 10 -27 3 -68
7 -90 10 -22 3 -249 7 -505 9 -361 3 -484 0 -550 -10z m823 -180 c13 -6 17
-19 17 -66 0 -57 -1 -59 -22 -54 -39 10 -107 13 -279 14 l-166 1 0 61 0 61
216 -4 c119 -3 224 -9 234 -13z m-637 -61 l1 -52 -96 -12 c-150 -18 -163 -19
-221 -25 -30 -3 -71 -8 -91 -11 -43 -6 -47 -1 -55 59 -6 55 -34 47 271 83 28
4 51 8 53 9 2 1 33 2 70 1 l67 -1 1 -51z m919 42 c185 -22 366 -53 378 -65 10
-10 -9 -97 -23 -106 -4 -2 -45 2 -91 10 -46 8 -102 16 -124 20 -22 3 -53 7
-70 10 -16 3 -48 7 -70 11 -22 3 -47 7 -55 9 -8 2 -20 4 -27 4 -6 1 -10 9 -9
19 2 9 7 36 11 59 4 25 11 40 18 38 7 -2 35 -6 62 -9z m-1574 -85 c4 0 11 -19
17 -41 7 -28 7 -42 -2 -48 -9 -8 -58 -22 -126 -37 -8 -2 -58 -15 -110 -29 -53
-14 -107 -27 -120 -29 -14 -3 -37 -8 -51 -12 -21 -5 -27 -2 -38 22 -29 62 -26
69 37 87 31 10 68 22 82 26 33 12 187 51 225 57 17 3 31 6 33 8 2 2 36 0 53
-4z m2404 -84 c143 -42 171 -52 180 -67 3 -6 -1 -33 -10 -60 -14 -41 -19 -48
-33 -41 -9 5 -96 31 -192 59 -232 67 -230 65 -223 111 3 20 10 43 14 52 10 19
21 16 264 -54z m-1417 -98 c2 -14 -3 -30 -10 -36 -16 -13 -96 -21 -285 -29
l-143 -6 0 29 c0 15 4 33 8 40 4 7 53 14 127 18 66 4 121 8 122 8 1 1 41 2 90
2 87 0 88 0 91 -26z m477 6 c108 -12 135 -17 136 -26 1 -5 2 -15 3 -21 5 -31
-13 -46 -51 -43 -21 2 -74 6 -118 9 -109 8 -237 18 -255 21 -10 1 -15 14 -16
40 l-1 37 126 -6 c69 -3 149 -9 176 -11z"/>
<path d="M1949 12828 c0 -2 -1 -528 -2 -1170 l-2 -1167 115 -40 c196 -69 629
-189 780 -216 14 -3 57 -12 95 -20 146 -32 417 -85 518 -101 22 -3 86 -14 145
-24 l105 -18 75 49 c41 27 86 50 101 50 14 1 71 3 126 4 l100 2 160 -72 c330
-150 329 -150 650 -170 50 -3 106 -8 125 -10 19 -2 80 -6 135 -10 55 -3 123
-8 150 -10 28 -2 104 -7 170 -10 66 -3 154 -8 195 -11 354 -21 719 -24 771 -6
20 7 47 15 60 17 13 3 58 11 99 20 134 26 286 39 485 39 133 0 321 -9 375 -18
14 -3 45 -7 70 -10 65 -9 105 -16 190 -33 100 -21 175 -28 290 -27 91 1 336
12 444 19 28 2 103 6 166 10 63 3 138 8 165 10 28 2 86 7 130 10 141 11 193
25 212 59 25 43 471 278 793 416 155 67 220 79 310 59 115 -26 217 -112 284
-240 44 -85 63 -109 79 -104 7 2 26 6 42 9 85 13 169 27 174 30 3 2 29 7 56
10 28 4 68 11 90 16 40 9 263 57 301 64 43 9 325 80 404 102 167 47 459 141
469 150 7 7 11 2344 4 2344 -4 0 -68 -20 -143 -44 -188 -61 -385 -118 -525
-152 -58 -13 -434 -95 -480 -104 -33 -6 -69 -13 -80 -15 -28 -6 -242 -43 -285
-50 -19 -3 -60 -10 -90 -15 -30 -5 -120 -18 -200 -30 -80 -11 -176 -24 -215
-30 -98 -14 -333 -41 -465 -55 -141 -14 -176 -17 -190 -20 -9 -2 -63 -6 -120
-10 -57 -4 -112 -8 -121 -10 -10 -2 -55 -6 -101 -10 -45 -3 -108 -8 -138 -10
-30 -2 -91 -7 -135 -10 -44 -3 -105 -8 -135 -10 -30 -2 -111 -7 -180 -11 -69
-4 -145 -8 -170 -9 -67 -3 -436 -16 -585 -21 -199 -5 -1235 -5 -1455 1 -319 7
-615 19 -785 30 -345 22 -408 26 -455 30 -25 3 -79 7 -120 10 -41 3 -97 8
-125 10 -64 7 -133 13 -220 20 -38 3 -77 8 -85 10 -8 2 -49 6 -90 9 -41 4
-113 11 -160 16 -47 6 -105 13 -130 16 -25 3 -56 7 -70 9 -14 2 -50 6 -80 10
-30 3 -66 8 -80 10 -31 5 -106 16 -140 20 -14 2 -42 6 -62 9 -21 3 -55 8 -75
11 -109 16 -252 39 -368 60 -71 14 -146 27 -165 30 -19 3 -53 10 -75 15 -22 5
-53 11 -70 14 -98 18 -304 66 -555 130 -54 14 -244 72 -348 106 -121 40 -131
42 -133 38z m636 -573 c22 -3 47 -8 55 -10 8 -2 33 -6 55 -10 47 -7 150 -23
185 -30 14 -2 67 -11 119 -19 90 -14 113 -26 106 -50 -2 -6 -6 -31 -9 -56 -3
-25 -8 -59 -12 -77 l-6 -32 -34 25 c-60 46 -182 81 -198 56 -5 -8 -32 -138
-40 -197 -4 -22 -10 -62 -16 -90 -5 -27 -12 -68 -15 -90 -3 -22 -7 -47 -10
-55 -2 -8 -6 -35 -9 -60 -3 -25 -8 -55 -10 -67 -3 -11 -8 -43 -12 -70 -3 -26
-8 -57 -10 -68 -20 -105 -22 -262 -4 -295 12 -22 11 -22 -46 -16 -32 3 -85 10
-118 16 -34 6 -75 13 -93 15 l-32 6 25 36 c25 37 57 136 69 213 4 25 9 54 11
65 6 28 13 69 19 108 5 29 20 113 29 162 14 76 22 131 31 199 3 27 8 52 10 55
3 6 16 114 19 161 l1 25 -100 -1 c-57 0 -110 -6 -123 -13 -18 -10 -22 -9 -22
3 0 21 28 165 34 175 3 4 29 4 58 0 29 -5 71 -11 93 -14z m8809 -246 c3 -75
26 -174 97 -424 76 -266 87 -299 126 -352 15 -21 19 -34 12 -38 -6 -4 -55 -19
-109 -34 l-98 -28 0 66 c0 126 -167 714 -223 785 -10 13 -19 28 -19 34 0 5 28
17 63 27 34 9 80 23 102 30 22 7 41 12 43 10 2 -1 4 -36 6 -76z m-277 -31 c14
-29 32 -106 26 -111 -2 -3 -32 -2 -66 0 -34 3 -75 0 -90 -6 -27 -11 -28 -13
-22 -59 7 -50 27 -140 101 -442 32 -130 54 -199 75 -234 16 -27 28 -50 27 -51
-9 -9 -198 -51 -205 -46 -5 3 -9 25 -8 48 3 47 -17 168 -51 313 -9 36 -17 72
-19 80 -32 149 -67 284 -79 313 l-15 37 -38 -14 c-21 -7 -57 -24 -81 -36 -24
-13 -47 -19 -51 -14 -13 16 -32 117 -23 126 5 5 20 11 33 14 13 3 119 27 234
53 116 27 217 49 226 50 9 0 20 -9 26 -21z m-1441 -23 c91 -26 171 -114 188
-207 7 -39 -9 -89 -44 -137 -39 -54 -71 -67 -153 -62 -58 3 -99 87 -61 125 20
21 32 20 72 -4 l32 -20 -5 31 c-8 44 -20 64 -56 92 -25 20 -37 23 -68 17 -47
-8 -71 -25 -111 -75 -42 -53 -61 -123 -65 -245 -4 -124 5 -190 40 -285 35 -97
87 -163 155 -197 53 -26 146 -44 153 -30 3 6 -17 151 -26 192 -27 111 -49 146
-111 169 -61 22 -50 27 107 46 43 5 64 8 154 20 l53 8 -11 -33 c-11 -30 -7
-209 5 -273 3 -15 11 -55 17 -89 12 -71 34 -128 52 -140 9 -6 8 -8 -3 -9 -8 0
-24 -2 -35 -5 -80 -17 -225 -31 -300 -30 -82 1 -95 4 -153 35 -148 81 -255
258 -279 465 -12 97 -5 314 11 370 35 119 125 229 215 263 66 25 159 28 227 8z
m-6181 -102 c65 -7 89 -19 79 -41 -13 -29 -6 -276 11 -407 2 -16 7 -64 10
-105 13 -177 35 -319 56 -362 21 -40 23 -52 11 -44 -4 2 -32 8 -62 11 -84 10
-93 11 -127 19 -35 8 -39 16 -23 47 6 11 13 53 16 94 4 73 4 75 -18 76 -58 2
-144 10 -156 14 -20 7 -44 -62 -46 -133 l-1 -64 -60 6 c-33 3 -71 8 -85 11
-14 3 -37 6 -52 7 -16 1 -28 4 -28 6 0 2 11 18 25 36 34 45 75 139 165 376 82
218 140 391 140 421 0 42 11 51 54 44 23 -3 64 -9 91 -12z m7029 -15 c-10 -40
-10 -78 0 -143 5 -27 9 -61 11 -75 3 -25 13 -85 21 -124 9 -48 24 -134 29
-171 4 -22 8 -51 11 -65 2 -14 7 -60 10 -102 8 -93 -3 -128 -58 -180 -46 -44
-112 -68 -201 -73 -143 -9 -209 45 -243 197 -2 10 -6 28 -9 41 -7 31 -12 55
-31 162 -16 84 -25 134 -29 155 -5 26 -12 62 -21 114 -8 50 -45 150 -61 169
-9 9 -14 20 -11 23 3 3 41 11 84 19 149 25 146 25 138 7 -13 -31 -13 -146 1
-217 7 -38 16 -86 19 -105 6 -38 9 -54 31 -175 8 -44 17 -98 21 -120 3 -22 12
-54 19 -72 26 -62 120 -83 172 -39 25 22 28 30 28 88 -1 85 -6 124 -65 429
-16 84 -47 189 -65 215 -21 32 -14 40 37 49 24 4 57 9 73 12 17 3 32 7 34 9 2
2 17 4 33 4 28 0 29 -1 22 -32z m-3564 -6 c57 -14 100 -41 155 -96 65 -64 96
-113 123 -193 30 -87 37 -146 36 -308 0 -157 -15 -230 -65 -333 -56 -116 -184
-214 -296 -228 -61 -7 -352 -12 -376 -6 -16 4 -16 7 3 38 12 18 23 43 26 56
13 68 18 233 18 588 0 384 -1 396 -22 444 -12 27 -22 51 -22 53 0 8 382 -6
420 -15z m-2936 -48 c55 -7 59 -12 37 -47 -18 -30 -43 -145 -56 -267 -7 -61
-8 -75 -29 -245 -9 -66 -18 -148 -20 -182 -5 -62 -5 -63 22 -70 38 -10 201
-10 236 0 l29 8 -7 -55 c-10 -93 -5 -89 -120 -81 -56 4 -103 8 -106 10 -3 2
-40 6 -83 10 -43 3 -88 8 -100 11 -12 2 -36 7 -54 10 l-31 6 19 33 c19 32 43
129 53 215 3 25 8 61 11 80 8 54 15 110 21 175 3 33 7 62 9 65 2 3 6 50 10
105 4 55 9 103 11 106 2 4 -3 32 -11 63 -8 31 -15 59 -15 62 0 5 70 0 174 -12z
m431 -48 c39 -4 79 -9 90 -11 11 -2 30 -4 42 -4 l22 -1 -19 -43 c-18 -41 -33
-115 -45 -222 -3 -27 -7 -66 -10 -85 -2 -19 -7 -69 -11 -110 -3 -41 -8 -88
-10 -105 -14 -141 -15 -233 -4 -240 19 -12 221 -9 253 4 l27 11 -5 -50 c-3
-27 -9 -60 -15 -74 -8 -23 -14 -25 -47 -22 -21 3 -83 8 -138 11 -55 4 -111 8
-125 10 -14 1 -54 6 -90 10 -36 4 -69 9 -73 12 -4 2 1 19 12 36 24 39 42 136
56 297 3 36 8 76 10 90 2 14 7 61 11 105 3 44 8 96 10 115 9 100 5 209 -10
244 -8 20 -12 35 -8 32 4 -2 39 -7 77 -10z m630 -60 c28 -2 88 -8 135 -11 47
-4 94 -9 105 -10 11 -1 30 -3 43 -4 23 -1 23 -4 21 -76 -2 -41 -5 -75 -8 -75
-3 0 -23 9 -45 20 -67 32 -242 52 -243 28 -1 -7 -4 -40 -7 -73 -8 -73 -13
-136 -21 -237 -7 -90 -24 -80 133 -81 l94 -1 -7 -55 c-4 -31 -8 -57 -9 -58 -1
-1 -49 -4 -106 -7 -126 -5 -132 -10 -128 -105 3 -73 -4 -68 115 -74 50 -3 87
1 122 13 52 17 62 17 56 -3 -2 -7 -6 -36 -10 -66 -3 -29 -8 -57 -11 -62 -2 -4
-21 -6 -42 -4 -20 1 -77 6 -127 9 -49 4 -101 9 -115 11 -14 2 -58 7 -99 10
-41 3 -79 8 -83 11 -5 3 -2 16 6 28 26 41 34 83 52 296 3 36 7 83 9 105 20
228 23 421 6 453 -6 10 -8 22 -5 25 5 5 67 3 169 -7z m565 -42 c123 -9 200
-24 240 -44 87 -44 137 -255 86 -360 -16 -34 -68 -92 -114 -127 l-23 -18 21
-80 c41 -156 66 -219 113 -279 l31 -39 -95 8 c-52 4 -102 7 -111 7 -23 -1 -26
5 -33 64 -13 103 -23 149 -50 229 -24 73 -37 94 -70 110 -41 19 -44 19 -44 -2
1 -10 -2 -77 -5 -149 -4 -101 -2 -143 9 -180 8 -27 15 -51 15 -55 0 -5 -158
-2 -192 4 -29 5 -31 14 -14 59 18 52 24 89 42 298 11 127 11 497 0 537 l-8 33
63 -5 c35 -2 98 -7 139 -11z m3044 -33 c-13 -49 -20 -106 -18 -166 1 -62 13
-306 19 -385 16 -223 19 -240 49 -312 5 -11 1 -18 -14 -23 -35 -11 -189 -15
-195 -5 -3 5 -1 19 6 31 6 12 12 45 12 74 1 45 -7 65 -59 161 -88 157 -174
294 -186 294 -11 0 -5 -134 17 -391 5 -54 24 -134 40 -171 6 -15 1 -18 -31
-19 -22 0 -50 -2 -64 -4 -52 -8 -130 -11 -130 -6 0 3 7 19 15 35 13 25 15 62
10 235 -11 387 -28 569 -59 616 -20 31 -11 34 116 41 l99 7 -7 -40 c-5 -33 0
-50 25 -99 44 -83 76 -136 143 -239 l59 -90 -6 120 c-9 187 -18 251 -45 311
-10 24 -18 44 -17 44 1 1 45 3 97 7 52 3 97 7 98 8 2 2 11 1 19 -2 10 -4 12
-13 7 -32z m-852 -54 c122 -71 187 -209 193 -409 8 -235 -76 -397 -236 -452
-163 -57 -318 38 -386 237 -19 55 -26 98 -28 182 -11 308 114 480 341 471 56
-2 82 -9 116 -29z"/>
<path d="M3402 11498 c-30 -64 -83 -220 -77 -226 3 -3 33 -7 66 -9 l61 -4 -6
98 c-6 101 -14 174 -20 180 -2 2 -12 -16 -24 -39z"/>
<path d="M6785 11639 c-9 -26 -17 -485 -9 -510 2 -9 14 -15 27 -14 29 3 92
-29 111 -57 19 -27 21 -69 4 -86 -20 -20 -57 -14 -82 13 -20 22 -25 23 -36 10
-17 -21 -15 -81 4 -110 52 -80 167 -17 242 132 l39 76 -1 161 c-1 181 -8 219
-60 297 -49 76 -91 102 -169 107 -59 4 -63 3 -70 -19z"/>
<path d="M5635 11490 c-9 -14 -21 -139 -21 -202 1 -46 4 -54 26 -65 63 -32
164 1 193 62 39 83 13 160 -67 196 -44 20 -121 25 -131 9z"/>
<path d="M7675 11428 c-86 -30 -145 -141 -147 -281 -3 -198 98 -360 208 -333
36 9 89 68 119 132 47 100 43 281 -10 379 -39 73 -49 85 -88 100 -43 17 -42
17 -82 3z"/>
<path d="M10090 10301 c-54 -17 -165 -68 -405 -186 -421 -207 -461 -234 -486
-323 -11 -41 -8 -149 7 -232 4 -19 7 -57 8 -84 1 -47 -1 -50 -29 -57 -183 -50
-362 -18 -930 168 -228 75 -406 131 -435 138 -8 2 -42 10 -75 18 -68 18 -197
41 -281 52 -137 17 -489 23 -629 10 -293 -25 -649 -157 -867 -320 -105 -79
-272 -245 -363 -359 -43 -54 -75 -86 -87 -86 -31 0 -256 79 -343 120 -138 66
-200 134 -210 231 -12 114 -17 135 -42 172 -15 21 -65 63 -111 95 -105 69
-650 345 -728 368 -85 24 -172 16 -225 -21 -73 -52 -102 -106 -828 -1555
l-519 -1035 3 -80 c1 -44 5 -96 10 -115 7 -35 47 -98 71 -113 7 -4 19 -13 26
-21 19 -18 195 -129 313 -195 174 -99 253 -132 404 -172 238 -62 305 -91 466
-199 114 -77 177 -128 171 -139 -11 -18 -38 -214 -38 -281 -2 -220 116 -354
379 -434 28 -9 58 -16 65 -16 7 0 29 -5 49 -10 31 -9 39 -17 54 -58 55 -149
137 -271 219 -321 68 -43 181 -59 477 -70 9 -1 31 -24 49 -52 43 -67 135 -156
202 -196 64 -39 125 -49 278 -48 l116 1 57 -76 c113 -149 220 -239 300 -256
121 -25 251 16 455 143 l103 65 82 -7 c45 -3 96 -7 112 -9 75 -10 259 -20 355
-21 l105 0 110 56 c61 32 148 78 195 104 140 77 285 144 369 171 135 44 158
64 383 344 l44 55 140 2 c76 1 157 4 178 8 99 15 211 114 326 288 72 109 62
105 165 67 50 -19 81 -23 185 -24 120 -1 127 0 184 29 32 17 91 60 130 96 170
159 206 317 131 570 -32 105 -32 156 0 218 21 42 192 271 274 366 14 17 39 47
55 68 16 20 34 37 38 37 5 0 49 -38 97 -85 48 -47 103 -97 123 -111 78 -56
157 -63 263 -23 48 18 509 247 624 310 191 104 227 143 225 243 -2 65 -4 70
-125 324 -33 68 -59 125 -59 127 0 2 -40 87 -90 190 -49 103 -90 188 -90 190
0 2 -49 106 -110 230 -60 125 -110 228 -110 230 0 1 -54 114 -121 251 -67 137
-144 296 -171 354 -184 384 -400 811 -420 830 -54 52 -168 75 -248 51z m261
-531 c89 -179 190 -383 224 -455 35 -71 120 -247 190 -390 70 -143 140 -287
155 -320 15 -33 84 -175 152 -315 69 -140 157 -322 197 -405 39 -82 94 -195
120 -250 37 -75 46 -103 37 -112 -20 -21 -749 -379 -784 -385 -17 -3 -68 93
-288 547 -48 99 -143 295 -212 435 -68 140 -146 300 -172 355 -26 55 -80 168
-120 250 -40 83 -94 195 -120 250 -26 55 -80 168 -120 250 -119 247 -230 486
-230 493 0 9 59 39 370 190 227 111 278 135 385 183 22 10 43 15 47 11 4 -4
80 -153 169 -332z m-6134 -35 c97 -53 272 -145 433 -228 82 -42 104 -58 102
-72 -5 -27 -75 -179 -200 -435 -126 -260 -825 -1658 -869 -1740 -16 -30 -60
-115 -98 -188 -38 -74 -77 -138 -89 -144 -49 -26 -108 -8 -336 106 -190 95
-454 228 -458 232 -15 12 69 187 587 1224 446 892 517 1031 597 1165 65 110
74 121 108 138 38 20 113 1 223 -58z m3183 -139 c30 -4 73 -9 95 -12 149 -19
394 -86 625 -169 304 -110 530 -181 640 -200 44 -8 190 -14 397 -16 140 -2
165 -5 192 -21 55 -35 81 -82 403 -748 134 -275 251 -518 319 -659 35 -74 87
-182 115 -240 l51 -106 -91 -100 c-49 -55 -104 -115 -121 -134 -71 -81 -167
-183 -267 -285 l-106 -109 -39 23 c-21 13 -147 94 -280 179 -134 86 -268 172
-298 191 -30 19 -124 80 -208 135 -83 55 -236 155 -339 222 -104 68 -188 127
-188 131 0 5 55 53 121 108 143 117 205 182 219 232 14 53 13 132 -2 133 -66
6 -134 -27 -277 -134 -154 -115 -206 -140 -284 -140 -131 1 -174 24 -722 389
-148 99 -347 232 -441 296 -93 63 -185 119 -202 123 -53 11 -106 -3 -140 -38
-28 -30 -115 -149 -262 -359 -166 -237 -253 -328 -382 -395 -102 -55 -159 -67
-293 -67 -93 1 -126 6 -217 34 -81 25 -89 41 -62 122 14 44 148 362 198 473 8
17 37 81 66 143 92 204 197 418 241 493 69 118 218 252 349 313 124 57 342
131 450 152 14 3 41 9 60 14 34 8 175 28 235 33 62 5 392 0 445 -7z m-2312
-626 c130 -56 246 -105 257 -110 11 -5 45 -19 75 -31 30 -12 61 -27 68 -34 10
-9 -7 -51 -84 -206 -210 -424 -246 -510 -262 -629 -16 -114 1 -186 52 -225
145 -111 444 -129 718 -45 243 76 399 206 593 500 60 91 113 170 117 175 5 6
21 25 36 43 l28 33 117 -71 c65 -39 175 -107 245 -152 126 -81 159 -102 555
-358 114 -74 290 -189 392 -255 1035 -671 1546 -1007 1645 -1082 75 -58 80
-71 77 -209 -3 -113 -5 -126 -32 -179 -42 -81 -96 -118 -180 -123 -101 -7
-143 17 -635 358 -183 126 -293 197 -355 228 -85 42 -215 67 -215 41 0 -5 16
-43 35 -83 56 -113 112 -165 375 -344 184 -125 237 -180 247 -257 4 -38 0 -57
-26 -109 -57 -117 -149 -180 -246 -169 -102 10 -131 27 -470 268 -349 248
-325 235 -433 237 -51 0 -94 -1 -96 -3 -10 -10 57 -132 95 -174 24 -26 105
-92 179 -145 220 -160 273 -224 264 -320 -10 -101 -113 -239 -213 -283 -102
-45 -173 -18 -491 189 -261 170 -292 185 -383 188 -40 1 -77 1 -84 -2 -18 -6
50 -140 94 -186 21 -21 83 -69 138 -106 196 -132 245 -181 245 -247 0 -61 -77
-121 -170 -132 -65 -7 -437 -7 -445 1 -3 3 8 64 27 135 27 106 33 147 33 238
0 104 -2 114 -32 175 -35 71 -55 97 -123 152 -45 36 -191 113 -263 139 -51 18
-59 30 -92 134 -52 168 -114 255 -223 313 -55 29 -179 64 -272 77 -43 6 -46 9
-69 62 -100 228 -287 367 -491 364 -95 -1 -163 -22 -264 -81 -37 -22 -70 -40
-73 -40 -4 0 -106 83 -123 100 -15 15 -125 82 -179 110 -161 81 -328 41 -501
-120 -40 -37 -117 -107 -136 -123 -20 -17 -23 -16 -100 40 -43 32 -84 62 -90
68 -6 5 -35 30 -65 55 -29 25 -61 54 -71 64 -29 31 -27 82 7 171 42 112 41
109 871 1768 85 169 156 307 159 307 3 0 112 -45 243 -100z m-387 -2335 c50
-17 84 -49 158 -148 67 -91 67 -94 9 -163 -110 -129 -272 -307 -347 -382 -70
-71 -101 -84 -158 -67 -97 29 -163 85 -197 169 -37 89 -13 161 112 336 80 114
228 267 263 272 42 6 111 -1 160 -17z m838 -124 c24 -13 133 -146 156 -191 13
-26 12 -31 -20 -85 -19 -32 -35 -59 -35 -60 0 -4 -186 -276 -238 -350 -168
-236 -274 -367 -322 -398 -86 -58 -215 -31 -306 65 -52 54 -62 85 -59 176 3
83 -8 63 184 336 151 213 275 377 325 428 39 40 102 73 157 83 18 3 35 7 36 9
7 7 102 -3 122 -13z m573 -449 c47 -29 168 -163 168 -186 0 -84 -317 -561
-468 -705 -95 -90 -232 -84 -340 14 -84 75 -105 178 -55 264 78 136 328 478
396 542 98 93 218 121 299 71z m489 -518 c89 -32 160 -139 159 -239 -1 -73
-65 -196 -167 -322 -125 -155 -180 -196 -256 -196 -139 0 -195 37 -286 186
l-48 80 22 26 c12 14 69 82 126 151 111 133 135 162 214 248 28 30 57 63 65
74 12 16 24 18 68 14 29 -2 75 -12 103 -22z"/>
<path d="M10776 7985 c-104 -54 -173 -103 -180 -128 -3 -12 -6 -77 -6 -143 0
-107 2 -124 20 -147 25 -32 148 -108 212 -132 l47 -17 118 62 c65 34 120 64
122 66 2 2 4 80 5 173 l1 170 -75 44 c-83 50 -162 87 -182 87 -7 0 -44 -16
-82 -35z m122 -8 c9 -10 -3 -20 -51 -45 -34 -18 -96 -50 -137 -72 -62 -32 -76
-36 -78 -23 -5 22 23 47 119 103 85 50 128 61 147 37z m48 -132 c66 -43 84
-141 38 -209 -63 -92 -194 -88 -254 9 -84 135 81 289 216 200z m144 -159 c0
-121 7 -112 -134 -190 l-98 -54 -90 52 c-50 28 -93 57 -96 64 -6 18 58 15 97
-4 82 -41 175 -23 234 47 26 30 37 57 51 119 9 44 21 78 27 75 5 -4 9 -52 9
-109z"/>
<path d="M3180 7609 c-52 -28 -107 -64 -122 -80 -30 -32 -31 -39 -29 -199 1
-110 6 -131 33 -153 31 -23 218 -127 231 -127 12 0 122 60 199 109 39 24 59
44 62 61 7 38 6 245 -2 274 -4 13 -25 38 -47 53 -50 36 -198 113 -217 113 -7
0 -56 -23 -108 -51z m150 5 c0 -11 -30 -32 -94 -67 -60 -33 -65 -35 -127 -74
-20 -13 -42 -23 -48 -23 -20 0 -2 42 28 67 68 57 241 126 241 97z m31 -122
c54 -36 86 -90 83 -137 -1 -11 -2 -28 -3 -37 -1 -25 -67 -95 -99 -106 -98 -33
-202 42 -202 147 0 105 138 189 221 133z m169 -158 c0 -53 -4 -104 -10 -114
-14 -26 -194 -130 -226 -130 -12 0 -56 22 -162 80 -28 16 -38 26 -30 31 17 11
75 1 112 -18 45 -24 131 -13 184 22 48 32 82 88 82 136 0 37 28 101 41 93 5
-3 9 -48 9 -100z"/>
<path d="M1969 10063 c-17 -38 -40 -90 -50 -118 -11 -27 -24 -59 -29 -70 -85
-188 -243 -775 -285 -1060 -3 -22 -7 -47 -10 -55 -3 -13 -6 -36 -21 -145 -2
-16 -6 -46 -9 -65 -4 -32 -11 -96 -21 -195 -23 -250 -23 -702 1 -900 2 -16 7
-59 10 -95 6 -59 20 -167 30 -230 8 -51 16 -106 20 -135 2 -16 14 -77 25 -135
142 -712 402 -1347 799 -1950 69 -106 278 -389 333 -451 13 -15 41 -48 63 -75
201 -241 511 -545 755 -739 41 -33 77 -62 80 -65 3 -3 30 -24 60 -46 553 -414
1132 -704 1785 -894 114 -33 323 -86 375 -95 19 -3 55 -11 80 -16 89 -20 258
-49 405 -68 140 -19 180 -22 375 -36 88 -7 562 -7 670 0 102 6 220 15 250 20
14 2 48 6 75 9 1007 120 1944 505 2750 1130 225 175 606 539 792 757 388 456
723 1020 946 1594 128 330 265 856 302 1160 4 28 8 61 11 75 5 32 19 158 29
270 21 233 21 607 0 870 -14 176 -50 443 -80 590 -3 14 -8 41 -11 60 -3 19
-20 91 -36 160 -16 69 -31 132 -33 140 -44 205 -275 840 -315 865 -11 7 -230
-63 -230 -73 0 -4 21 -59 46 -122 92 -231 215 -639 248 -820 2 -14 13 -70 24
-125 11 -55 23 -125 27 -155 4 -30 8 -57 10 -60 2 -3 6 -34 9 -70 4 -36 9 -76
11 -90 7 -40 12 -97 30 -335 6 -71 6 -533 0 -590 -2 -22 -6 -85 -10 -140 -4
-55 -8 -102 -10 -105 -1 -3 -6 -41 -10 -85 -4 -44 -8 -82 -10 -85 -2 -3 -6
-27 -9 -55 -11 -83 -17 -118 -27 -163 -5 -23 -12 -59 -15 -80 -35 -228 -170
-678 -294 -987 -52 -129 -220 -479 -280 -585 -333 -583 -782 -1114 -1280
-1516 -427 -344 -887 -615 -1390 -817 -244 -98 -716 -240 -870 -263 -19 -3
-43 -7 -52 -10 -9 -3 -25 -6 -35 -8 -37 -7 -89 -16 -123 -21 -19 -3 -60 -10
-90 -15 -63 -10 -110 -17 -195 -26 -33 -3 -73 -8 -90 -10 -213 -25 -885 -25
-1010 1 -11 2 -49 7 -85 10 -36 3 -77 8 -90 10 -14 3 -47 7 -75 10 -27 3 -57
7 -65 10 -8 2 -35 7 -60 10 -25 3 -52 8 -60 10 -8 2 -31 7 -50 10 -45 8 -202
42 -260 56 -858 217 -1597 603 -2245 1173 -107 94 -383 370 -476 476 -514 585
-906 1303 -1120 2050 -17 58 -32 113 -34 123 -2 10 -7 27 -10 37 -3 10 -8 27
-10 37 -61 282 -85 407 -100 518 -3 22 -7 54 -10 70 -5 35 -14 132 -21 230 -6
92 -6 765 1 880 5 87 12 162 20 216 3 14 7 41 9 60 44 344 162 801 306 1189
76 205 74 197 40 215 -54 28 -68 21 -101 -52z"/>
<path d="M2179 10023 c-103 -238 -224 -613 -273 -843 -43 -203 -58 -280 -72
-360 -20 -122 -22 -135 -29 -195 -3 -27 -7 -59 -9 -70 -14 -75 -20 -234 -21
-530 0 -352 7 -507 29 -660 3 -16 10 -66 16 -111 6 -44 13 -91 15 -105 3 -13
10 -52 15 -86 26 -161 106 -478 171 -680 250 -772 697 -1500 1272 -2075 389
-388 823 -703 1312 -953 139 -71 416 -195 525 -234 19 -7 44 -17 55 -22 25
-10 149 -51 275 -91 83 -25 338 -93 395 -104 11 -2 65 -13 120 -24 85 -16 191
-34 330 -55 17 -3 64 -7 105 -11 41 -3 86 -7 100 -10 138 -23 837 -22 955 1
11 2 51 7 90 10 38 4 72 8 75 10 3 1 37 6 75 10 39 3 104 13 145 20 41 8 91
17 110 20 19 3 42 8 50 10 8 2 29 7 45 9 81 14 337 82 480 127 537 171 1024
416 1499 754 256 183 625 521 856 784 36 41 72 82 80 91 8 8 28 34 45 55 16
22 36 47 44 55 35 36 216 286 289 400 337 529 574 1096 707 1690 8 35 37 166
40 180 1 8 6 35 10 60 4 25 9 52 10 60 1 8 6 40 10 70 4 30 9 64 11 75 1 11 5
45 9 75 4 30 8 66 11 80 26 163 25 873 -2 1125 -7 65 -62 396 -75 455 -6 25
-13 58 -16 74 -28 167 -177 651 -253 821 -9 22 -20 50 -24 62 -13 40 -26 43
-118 20 -47 -12 -89 -25 -93 -29 -4 -3 19 -72 49 -152 70 -182 75 -201 48
-215 -42 -23 -44 -20 -140 214 l-49 120 -34 0 c-44 0 -99 -16 -99 -28 0 -6 5
-26 12 -44 10 -28 10 -36 -4 -49 -20 -21 -33 -13 -58 36 -11 21 -23 41 -28 44
-4 2 -37 -2 -73 -9 -36 -8 -77 -16 -90 -19 -13 -2 -53 -9 -89 -16 -36 -7 -69
-13 -75 -14 -5 -1 -54 -10 -108 -20 -88 -17 -97 -20 -91 -38 6 -19 64 -144
171 -368 31 -63 77 -160 103 -215 26 -55 83 -172 125 -260 102 -211 287 -597
340 -710 103 -219 227 -465 234 -465 5 0 11 14 15 30 5 30 22 42 23 18 1 -7 4
-38 8 -68 10 -91 12 -252 3 -300 -9 -50 -40 -114 -71 -149 -23 -25 -94 -73
-168 -114 -285 -157 -641 -337 -719 -362 -37 -12 -85 -18 -145 -18 -110 0
-160 20 -280 112 -62 48 -82 58 -90 49 -26 -29 -165 -207 -200 -257 -47 -65
-48 -90 -11 -216 58 -196 32 -396 -73 -548 -16 -24 -56 -69 -88 -101 -135
-134 -244 -181 -441 -189 -88 -4 -93 -6 -129 -38 -21 -19 -53 -48 -72 -64 -19
-17 -41 -37 -50 -45 -9 -9 -47 -43 -86 -75 -38 -33 -72 -63 -75 -66 -3 -3 -54
-41 -115 -84 -218 -157 -500 -312 -735 -405 -106 -42 -295 -108 -329 -115 -77
-15 -229 -66 -335 -113 -127 -56 -164 -62 -321 -57 -77 2 -160 7 -185 9 -25 3
-70 8 -100 10 -30 3 -81 8 -112 11 -55 6 -60 5 -117 -34 -33 -23 -63 -41 -67
-41 -4 0 -15 -7 -24 -15 -27 -24 -190 -92 -254 -105 -74 -15 -189 -16 -241 -1
-103 29 -257 152 -345 275 l-32 44 -91 0 c-96 0 -166 14 -258 53 -79 33 -125
67 -220 162 l-84 85 -85 6 c-283 21 -383 57 -495 179 -44 47 -81 101 -117 172
l-52 103 -96 28 c-210 62 -345 163 -419 317 -29 59 -33 102 -35 317 l-1 185
-80 52 c-71 47 -149 90 -210 115 -11 4 -74 22 -140 38 -242 61 -366 116 -640
283 -107 65 -233 158 -269 198 -69 76 -88 139 -90 289 l-1 125 504 1010 c588
1179 644 1293 637 1310 -2 7 -19 15 -38 18 -18 3 -98 17 -178 31 -178 31 -198
35 -230 41 -14 3 -38 8 -55 11 -66 11 -362 74 -390 83 -16 5 -58 14 -93 21
-78 16 -76 18 -132 -115 -47 -111 -59 -129 -83 -119 -21 8 -17 25 39 166 l42
108 -37 10 c-20 5 -58 16 -86 25 -27 8 -56 15 -63 15 -7 0 -22 -21 -33 -47z
m370 -306 c-16 -45 -34 -91 -39 -102 -5 -11 -26 -63 -45 -115 -39 -101 -53
-126 -67 -112 -8 8 12 70 99 306 19 53 44 100 56 108 25 16 24 -8 -4 -85z
m8905 -81 c17 -27 87 -223 116 -328 15 -54 16 -67 5 -72 -27 -10 -46 26 -116
229 -60 175 -64 195 -39 195 10 0 25 -11 34 -24z m-9240 -287 c-68 -224 -70
-229 -86 -229 -15 0 -3 70 37 225 54 208 72 248 101 224 8 -7 -6 -66 -52 -220z
m9564 20 c40 -132 89 -365 80 -376 -15 -19 -46 -16 -56 5 -11 21 -112 396
-112 416 0 20 31 26 55 11 11 -7 26 -32 33 -56z m-9422 -186 c-18 -97 -99
-413 -106 -413 -16 0 -1 87 57 320 23 95 37 130 50 130 3 0 2 -17 -1 -37z
m9278 -122 c3 -4 21 -82 40 -172 41 -193 48 -269 26 -269 -17 0 -30 38 -60
187 -39 190 -43 215 -41 246 1 18 26 24 35 8z m-9534 -132 c0 -12 -57 -360
-65 -396 -7 -33 -23 -28 -19 5 2 15 5 52 8 82 3 30 8 73 11 95 3 22 8 55 11
74 11 80 32 151 45 151 5 0 9 -5 9 -11z m9814 -189 c3 -25 9 -74 12 -110 3
-36 7 -75 9 -88 2 -12 7 -61 10 -107 6 -74 5 -86 -10 -91 -27 -11 -42 16 -49
86 -8 72 -9 81 -27 212 -20 138 -19 151 11 158 30 8 35 0 44 -60z m-9688 -168
c-2 -4 -7 -41 -10 -82 -5 -68 -17 -174 -22 -192 -1 -5 -2 -29 -3 -55 -1 -34
-4 -44 -10 -33 -6 8 -8 17 -6 20 1 3 6 43 9 90 7 87 15 179 21 215 1 11 3 28
4 38 0 10 6 15 11 12 6 -4 8 -9 6 -13z m9518 -164 c3 -29 8 -75 11 -103 13
-129 17 -295 7 -295 -21 0 -25 20 -37 157 -3 40 -8 101 -11 135 -3 35 -7 79
-9 98 -2 34 9 60 26 60 4 0 10 -24 13 -52z m210 -275 c12 -30 2 -421 -11 -434
-7 -7 -16 -9 -20 -5 -9 9 -15 398 -7 438 6 28 28 29 38 1z m-28 -700 c-3 -38
-8 -81 -11 -98 -34 -200 -49 -272 -57 -285 -9 -14 -4 127 5 175 3 11 8 47 11
80 20 178 24 195 43 195 13 0 14 -11 9 -67z m-236 -358 c-17 -99 -61 -278 -70
-289 -5 -4 -5 9 0 30 5 22 11 55 14 74 16 100 37 221 48 265 11 45 13 47 16
20 2 -16 -1 -61 -8 -100z m85 -392 c-34 -119 -63 -194 -51 -133 16 86 80 295
84 276 2 -9 -13 -73 -33 -143z m-219 -154 c-15 -34 -15 -34 -9 -4 7 35 13 48
20 42 2 -3 -3 -20 -11 -38z m154 -46 c-11 -17 -11 -17 -6 0 3 10 6 24 7 30 0
9 2 9 5 0 3 -7 0 -20 -6 -30z m-9319 -451 c38 -94 37 -120 -2 -34 -26 58 -69
172 -69 181 1 12 34 -56 71 -147z m394 -194 c14 -26 25 -51 25 -55 -1 -11 -70
110 -70 122 0 13 15 -9 45 -67z m-153 -268 c57 -97 107 -183 111 -192 10 -26
-9 -31 -31 -8 -35 37 -202 354 -202 382 0 20 14 0 122 -182z m398 -140 c66
-99 116 -180 110 -180 -16 0 -173 229 -225 331 -34 66 1 20 115 -151z m-160
-242 c50 -54 250 -326 250 -341 0 -25 -18 -29 -37 -9 -49 49 -235 303 -246
335 -6 17 -2 37 8 37 2 0 14 -10 25 -22z m509 -218 c66 -77 128 -151 137 -165
28 -43 5 -42 -34 1 -98 107 -242 284 -242 296 0 23 29 -5 139 -132z m36 -426
c131 -131 156 -160 153 -182 -2 -14 -8 -27 -14 -29 -9 -3 -90 75 -265 256 -39
40 -62 79 -55 96 3 8 10 15 15 15 6 0 80 -70 166 -156z m344 32 c47 -46 97
-92 110 -102 85 -68 140 -134 112 -134 -30 0 -331 281 -331 309 0 25 27 7 109
-73z m498 -403 c61 -44 139 -97 172 -119 61 -39 77 -64 42 -64 -22 0 -207 119
-293 189 -33 26 -58 54 -58 65 0 25 8 21 137 -71z m-430 1 c12 -11 34 -28 49
-39 21 -15 193 -145 213 -161 7 -6 -29 -54 -40 -54 -12 0 -194 138 -281 213
-62 53 -77 80 -58 102 10 12 18 10 54 -14 22 -16 51 -37 63 -47z m6096 -217
c-43 -36 -160 -112 -142 -93 20 22 151 115 162 115 5 1 -4 -9 -20 -22z m-5128
-117 c181 -95 209 -110 224 -125 13 -12 12 -15 -3 -21 -29 -11 -386 174 -386
200 0 17 21 26 35 16 6 -4 64 -35 130 -70z m-352 -91 c94 -55 178 -107 185
-114 19 -18 -1 -55 -30 -55 -23 0 -301 163 -356 208 -31 26 -32 28 -16 50 9
13 22 21 30 18 8 -3 92 -51 187 -107z m5152 -14 c-11 -8 -25 -18 -31 -22 -27
-20 -280 -164 -326 -185 -32 -15 -38 -15 -38 -3 0 17 42 45 160 104 47 24 90
47 95 51 23 18 131 70 145 69 11 0 10 -3 -5 -14z m-589 -50 c-11 -8 -22 -12
-25 -9 -6 6 19 24 34 24 6 -1 1 -7 -9 -15z m-57 -19 c-10 -9 -113 -57 -104
-48 13 13 87 52 99 52 5 0 7 -2 5 -4z m-3569 -86 c47 -17 112 -40 145 -51 69
-24 80 -32 72 -53 -7 -18 -44 -9 -232 60 -140 51 -187 77 -179 98 6 16 8 15
194 -54z m3254 -40 c-19 -19 -362 -130 -402 -130 -37 0 10 21 128 55 69 21
157 48 195 60 80 27 93 29 79 15z m-3696 -51 c174 -69 292 -125 292 -139 0 -9
-16 -47 -25 -58 -2 -3 -304 125 -387 165 -21 9 -38 23 -38 31 0 15 18 52 26
52 3 0 62 -23 132 -51z m4092 -54 c-14 -16 -93 -54 -223 -106 -148 -59 -188
-70 -204 -57 -20 16 0 34 65 59 83 31 208 77 281 104 66 24 101 24 81 0z
m-3036 -36 c174 -40 215 -56 202 -77 -6 -10 -31 -6 -191 29 -171 38 -245 61
-245 75 0 22 38 17 234 -27z m2051 -28 c-17 -15 -76 -30 -225 -56 -153 -27
-220 -31 -220 -15 0 12 8 13 180 40 75 11 149 24 165 29 40 12 112 14 100 2z
m-1560 -55 c28 -3 70 -8 95 -11 25 -2 68 -7 95 -10 73 -8 130 -16 134 -20 1
-2 0 -9 -4 -16 -6 -9 -35 -10 -109 -5 -251 16 -341 34 -322 64 5 8 16 8 111
-2z m-889 -66 c98 -28 196 -55 217 -61 39 -10 43 -21 28 -63 l-10 -24 -63 14
c-100 23 -268 73 -325 95 -37 15 -53 27 -53 39 0 24 10 50 19 50 4 0 88 -23
187 -50z m1840 37 c3 -3 -5 -11 -18 -18 -31 -17 -405 -26 -421 -10 -6 6 -8 13
-4 17 3 3 63 9 134 11 70 3 129 6 130 7 5 4 175 -3 179 -7z m981 -63 c3 -8 -1
-22 -8 -29 -11 -11 -185 -62 -274 -81 -11 -2 -42 -9 -70 -15 -62 -14 -99 -9
-103 13 -4 19 20 27 253 87 171 44 193 47 202 25z m-2302 -99 c43 -7 305 -44
340 -48 27 -3 30 -7 30 -38 0 -34 -1 -34 -45 -34 -25 -1 -63 2 -85 6 -22 4
-71 10 -110 14 -38 4 -72 8 -75 10 -3 1 -27 6 -55 9 -81 11 -95 17 -95 38 0
35 19 59 43 53 12 -3 36 -7 52 -10z m1670 -37 c12 -12 -3 -38 -27 -47 -13 -5
-46 -12 -73 -15 -28 -4 -63 -9 -80 -11 -103 -16 -243 -29 -272 -26 -8 1 -13
15 -13 35 l0 34 73 7 c39 4 79 9 87 10 8 1 51 6 95 10 44 4 81 8 82 9 6 6 122
0 128 -6z m-777 -42 c85 -2 116 -6 123 -17 14 -22 10 -46 -8 -53 -16 -7 -442
-1 -448 6 -5 5 -8 30 -6 55 1 22 3 22 114 17 61 -3 163 -6 225 -8z"/>
<path d="M8991 9597 c-27 -14 -49 -43 -39 -52 10 -11 47 5 68 28 34 36 19 49
-29 24z"/>
<path d="M5332 9588 c5 -13 232 -159 281 -179 21 -9 30 -9 42 1 13 11 3 21
-72 67 -153 94 -261 142 -251 111z"/>
<path d="M5495 9579 c-3 -4 38 -33 90 -64 104 -63 139 -68 151 -20 14 56 -21
100 -45 58 -9 -17 -11 -17 -41 1 -33 19 -148 38 -155 25z"/>
<path d="M5777 9555 c-4 -8 -2 -17 4 -21 11 -6 39 13 39 27 0 15 -37 10 -43
-6z"/>
<path d="M9035 9559 c-10 -14 -1 -21 19 -13 9 3 13 10 10 15 -7 12 -21 11 -29
-2z"/>
<path d="M13030 5564 c-148 -33 -278 -120 -324 -218 -27 -58 -132 -374 -141
-424 -5 -31 -4 -32 15 -22 51 27 173 9 400 -60 314 -95 630 -194 674 -212 73
-28 131 -67 151 -101 9 -15 19 -27 21 -24 15 15 105 303 118 378 4 20 7 80 7
134 0 93 -1 102 -35 171 -54 109 -153 202 -286 269 -183 92 -454 142 -600 109z
m402 -264 c148 -63 272 -168 301 -255 17 -48 13 -123 -6 -143 -14 -13 -42 -17
-94 -13 -12 0 -35 12 -50 26 -27 24 -27 24 -5 25 53 0 82 78 43 114 -50 45
-161 -5 -186 -84 -12 -39 -11 -39 -432 95 -132 42 -153 51 -153 69 0 31 44
118 71 143 96 88 334 98 511 23z"/>
<path d="M1170 5489 c-94 -15 -117 -21 -188 -45 -226 -76 -398 -208 -487 -375
l-40 -74 0 -120 c0 -117 1 -122 33 -180 18 -33 66 -95 107 -138 40 -42 77 -86
80 -97 3 -11 11 -20 16 -20 8 0 64 35 79 50 3 3 49 38 103 78 53 41 95 77 92
82 -3 4 -36 16 -75 25 -78 19 -177 75 -211 119 -79 101 59 297 283 404 107 51
193 70 310 68 130 -3 196 -39 238 -129 29 -63 5 -151 -50 -185 -27 -17 -43 -7
-30 18 14 26 5 72 -17 87 -9 7 -28 13 -42 13 -105 -2 -115 -191 -15 -259 31
-22 47 -25 122 -25 81 0 90 2 132 31 94 64 123 127 124 258 0 81 -3 98 -32
158 -54 115 -160 204 -294 243 -57 17 -175 24 -238 13z"/>
<path d="M8471 5209 c-45 -60 -81 -113 -78 -115 7 -8 65 20 167 80 113 65 203
127 196 133 -3 3 -49 7 -103 9 l-98 4 -84 -111z"/>
<path d="M1970 4630 c0 -25 -155 -90 -380 -160 -664 -205 -714 -218 -825 -218
-48 0 -89 -2 -91 -4 -6 -6 134 -249 156 -272 18 -18 19 -18 62 16 75 60 203
110 261 101 67 -10 147 -85 147 -139 0 -33 -11 -35 -42 -9 -34 29 -55 31 -86
9 -27 -18 -30 -82 -6 -118 14 -23 14 -25 -18 -49 -41 -31 -120 -67 -147 -67
-12 0 -21 -3 -21 -6 0 -15 133 -247 166 -291 l21 -28 0 26 c1 65 106 182 438
485 399 364 474 424 527 424 l28 0 -26 53 c-42 85 -147 257 -156 257 -4 0 -8
-4 -8 -10z m-311 -377 c-20 -26 -120 -121 -150 -144 l-27 -19 -32 50 c-18 28
-31 52 -29 54 6 6 222 74 238 75 11 1 11 -2 0 -16z"/>
<path d="M12403 4614 c-11 -16 -46 -78 -78 -139 -32 -60 -65 -120 -73 -132
-14 -22 -13 -23 16 -23 17 0 43 -5 57 -10 25 -10 110 -71 165 -120 14 -12 49
-43 79 -68 30 -26 59 -52 65 -57 6 -6 45 -39 86 -75 421 -365 509 -453 541
-542 l13 -37 16 27 c26 42 160 299 160 305 0 4 -10 3 -23 -2 -18 -7 -38 -1
-90 27 -129 71 -197 151 -197 231 0 45 37 107 72 122 31 13 49 6 30 -13 -7 -7
-12 -29 -12 -50 0 -39 19 -58 59 -58 23 0 81 46 81 65 0 40 98 3 164 -61 l35
-34 19 28 c11 15 53 89 92 166 l73 138 -33 -17 c-62 -32 -154 -17 -535 87
-551 150 -728 209 -753 254 -8 14 -12 12 -29 -12z m412 -360 c33 -9 88 -23
122 -32 l63 -17 -21 -30 c-11 -16 -24 -40 -29 -53 -9 -20 -13 -21 -32 -11 -52
27 -214 173 -183 165 11 -3 47 -13 80 -22z"/>
<path d="M2304 4035 c-11 -61 -110 -155 -414 -391 -423 -330 -533 -402 -601
-392 -16 3 -29 1 -29 -3 0 -8 53 -79 154 -209 28 -36 55 -70 61 -76 5 -6 55
-66 110 -132 55 -67 108 -124 118 -127 20 -7 69 21 145 84 l44 35 -49 21 c-26
12 -63 34 -80 49 -39 33 -183 203 -183 216 0 5 69 63 153 129 83 67 159 126
167 133 8 7 73 58 145 114 280 215 387 283 445 284 50 1 51 13 8 70 -64 84
-180 230 -184 230 -2 0 -6 -16 -10 -35z"/>
<path d="M12048 3920 c-105 -32 -158 -80 -337 -300 l-101 -124 55 -11 c75 -15
124 -50 485 -345 342 -279 466 -396 477 -452 3 -15 9 -31 14 -33 15 -10 254
287 293 365 60 118 55 293 -12 427 -95 188 -341 395 -557 468 -74 25 -244 28
-317 5z m291 -235 c163 -67 313 -207 391 -365 47 -96 27 -236 -37 -261 -36
-13 -111 14 -123 45 -10 28 -6 33 35 40 65 13 79 97 19 125 -50 23 -109 9
-173 -40 -30 -24 -29 -24 -71 11 -19 16 -39 33 -45 37 -13 11 -177 145 -192
158 -6 5 -50 41 -97 79 -50 40 -83 73 -79 79 26 42 78 92 117 112 46 24 172
14 255 -20z"/>
<path d="M11574 3497 c-6 -7 -49 -47 -95 -89 -46 -42 -93 -85 -104 -95 -11
-10 -29 -29 -40 -42 l-20 -24 22 7 c13 4 36 -1 63 -15 64 -34 305 -279 585
-594 39 -44 77 -86 85 -95 73 -75 150 -201 150 -245 0 -14 3 -25 8 -25 7 0 47
36 163 145 98 92 97 91 53 110 -74 31 -212 163 -474 455 -41 46 -96 106 -121
134 -81 88 -180 208 -204 245 -13 20 -29 56 -36 81 -15 54 -21 62 -35 47z"/>
<path d="M2760 3469 c0 -52 -43 -110 -198 -267 -159 -160 -472 -459 -552 -527
-73 -62 -132 -96 -169 -97 -29 -1 -30 -2 -16 -27 7 -14 62 -75 121 -134 107
-109 123 -117 124 -62 0 39 45 92 239 285 467 465 619 595 684 585 9 -2 17 0
17 4 0 14 -141 173 -219 245 l-31 30 0 -35z"/>
<path d="M3010 3180 c0 -66 -40 -129 -259 -405 -202 -255 -417 -510 -459 -545
-20 -17 -54 -36 -74 -42 -21 -6 -38 -15 -38 -19 0 -11 245 -205 320 -254 84
-54 127 -68 224 -71 172 -5 316 63 466 219 200 209 305 464 270 658 -17 94
-61 169 -139 236 -36 32 -72 63 -79 70 -7 7 -34 29 -60 50 -26 21 -55 45 -65
54 -10 9 -38 30 -62 48 l-45 32 0 -31z m172 -377 c36 -38 65 -118 63 -173 -3
-61 -30 -153 -68 -225 -38 -71 -209 -249 -279 -289 -193 -112 -411 -22 -278
114 37 38 50 38 50 1 0 -60 68 -98 109 -60 45 42 36 132 -19 184 -17 16 -30
32 -30 36 0 4 75 98 166 210 91 111 175 215 186 230 20 26 23 27 47 14 14 -7
38 -26 53 -42z"/>
<path d="M11119 3076 c-56 -15 -131 -58 -354 -208 -126 -84 -212 -132 -332
-187 l-161 -73 57 -57 c52 -51 70 -82 189 -324 73 -147 132 -270 132 -272 0
-3 23 -51 50 -106 28 -55 50 -104 50 -108 0 -5 -20 -11 -45 -14 -84 -12 -115
-49 -87 -106 16 -35 54 -50 77 -31 21 17 29 7 16 -18 -15 -28 -63 -61 -99 -68
-44 -9 -87 21 -128 88 -31 50 -189 370 -246 498 -11 25 -31 70 -45 100 -53
113 -92 239 -87 286 3 31 1 44 -8 44 -7 0 -83 -34 -168 -76 l-155 -76 36 -18
c19 -10 52 -40 73 -67 34 -43 136 -242 241 -473 106 -231 189 -382 234 -429
103 -106 250 -110 435 -13 101 53 160 116 186 199 33 108 20 162 -102 421
-241 516 -231 494 -258 562 -24 60 -31 163 -13 181 15 15 54 -12 126 -91 62
-67 216 -284 447 -630 130 -193 161 -253 162 -308 0 -23 4 -45 9 -47 10 -7
281 175 286 191 2 7 -8 15 -22 18 -28 7 -110 84 -166 156 -57 72 -179 256
-179 268 0 9 26 16 43 11 1 0 13 4 27 9 38 14 71 -3 220 -113 143 -106 204
-168 217 -220 l8 -35 139 94 c76 52 145 101 154 110 15 15 15 16 -3 17 -11 1
-23 1 -27 0 -21 -3 -112 36 -178 77 -78 47 -288 200 -307 224 -9 10 -7 28 9
73 20 60 27 170 13 216 -20 67 -64 136 -126 199 -111 111 -228 155 -340 126z
m159 -243 c45 -33 85 -108 90 -166 3 -45 0 -58 -27 -98 -32 -48 -90 -85 -117
-75 -13 5 -12 10 5 32 29 37 28 89 -2 109 -18 11 -31 12 -61 4 -43 -12 -86
-46 -86 -68 0 -15 -89 100 -115 150 -13 24 -12 28 3 41 106 90 242 121 310 71z"/>
<path d="M3847 2529 c-6 -49 -65 -128 -252 -339 -344 -387 -503 -557 -563
-597 -12 -9 -37 -19 -54 -22 -17 -4 -33 -11 -35 -16 -3 -9 292 -175 310 -175
4 0 7 13 7 28 0 62 113 223 179 256 35 17 104 20 133 5 28 -14 78 -60 78 -71
0 -4 -27 -8 -60 -8 l-59 0 -7 -36 c-8 -45 9 -79 48 -95 15 -6 31 -15 34 -20 8
-13 -43 -106 -83 -150 -20 -22 -33 -42 -30 -45 3 -3 69 -41 148 -85 143 -79
185 -96 158 -63 -20 24 -14 114 16 249 28 123 128 481 193 685 20 63 36 117
37 120 4 19 31 95 53 145 28 63 44 85 61 85 24 0 8 20 -36 45 -139 79 -208
116 -244 132 -26 11 -27 10 -32 -28z m-78 -555 c-21 -70 -40 -129 -44 -132 -9
-9 -105 40 -105 54 0 7 4 14 8 16 7 2 45 45 147 166 11 12 22 22 26 22 4 0
-11 -57 -32 -126z"/>
<path d="M9440 2267 c-97 -33 -186 -112 -233 -210 -35 -70 -39 -99 -39 -241 2
-350 164 -668 401 -784 73 -36 80 -37 181 -36 93 0 118 4 220 38 137 45 220
77 220 86 0 4 -9 15 -21 26 -29 26 -55 80 -96 199 -71 202 -96 316 -74 329 22
14 11 28 -16 22 -41 -10 -315 -95 -338 -106 -11 -5 -30 -12 -42 -15 -35 -10
-27 -21 11 -17 47 5 104 -15 137 -49 51 -52 141 -283 126 -323 -8 -21 -94 -22
-163 -1 -169 51 -329 353 -323 609 4 151 50 238 145 273 26 9 38 8 71 -7 47
-21 83 -63 83 -98 0 -24 -1 -25 -20 -7 -28 25 -65 27 -86 4 -22 -25 -25 -43
-12 -79 14 -41 52 -62 114 -64 45 -1 58 4 91 30 73 60 97 141 69 238 -37 126
-138 192 -296 194 -41 0 -91 -5 -110 -11z"/>
<path d="M4416 2253 c-3 -3 2 -16 11 -29 30 -47 16 -131 -72 -414 -83 -265
-202 -613 -235 -687 -16 -36 -46 -80 -65 -98 -26 -25 -31 -36 -22 -43 14 -12
300 -106 367 -121 222 -50 437 66 562 305 52 100 106 251 115 322 9 62 9 255
1 315 -9 66 -62 169 -117 227 -53 56 -117 87 -320 157 -182 62 -218 72 -225
66z m321 -325 c93 -44 134 -141 130 -307 -3 -88 -9 -122 -35 -198 -73 -215
-231 -373 -360 -360 -50 5 -68 22 -78 73 -4 24 -1 43 13 65 25 43 35 45 53 6
16 -33 42 -44 85 -33 23 6 32 21 41 70 5 32 -49 105 -96 129 -19 10 -34 21
-34 25 5 25 139 437 179 551 6 16 37 10 102 -21z"/>
<path d="M8965 2129 c-16 -5 -41 -11 -55 -13 -14 -2 -59 -12 -100 -21 -41 -9
-86 -19 -99 -21 -12 -3 -53 -12 -90 -20 -73 -18 -70 -17 -161 -39 -36 -9 -75
-19 -87 -21 -12 -2 -32 -8 -44 -12 -22 -9 -22 -9 9 -28 52 -30 93 -150 177
-519 115 -503 139 -659 109 -716 -26 -50 -48 -52 251 16 88 20 167 38 175 40
8 2 47 11 85 20 171 41 160 35 159 81 0 21 -8 74 -18 116 l-17 77 -38 -37
c-52 -50 -207 -106 -311 -114 -44 -3 -45 -3 -58 37 -8 22 -15 47 -17 55 -46
197 -43 223 26 292 35 35 56 48 77 48 42 0 45 -9 12 -47 -36 -41 -36 -44 -6
-80 42 -50 115 -34 158 35 16 27 19 42 13 89 -8 73 -26 107 -77 143 -77 56
-163 64 -255 24 -29 -13 -55 -19 -58 -14 -5 8 -38 155 -51 230 -3 14 -11 48
-17 75 -7 28 -13 57 -12 65 0 14 52 34 121 45 20 3 40 8 45 10 23 15 157 15
204 1 27 -8 50 -14 52 -13 4 4 -36 168 -48 200 -6 15 -14 27 -18 26 -3 0 -19
-5 -36 -10z"/>
<path d="M7888 1919 c-109 -17 -247 -120 -290 -217 -30 -68 -30 -171 1 -234
42 -87 151 -165 332 -236 189 -75 264 -151 253 -258 -7 -74 -41 -121 -107
-149 -92 -38 -196 7 -213 94 l-7 32 40 -21 c79 -41 127 11 87 95 -20 44 -64
64 -123 58 -104 -10 -171 -78 -176 -179 -11 -222 211 -361 460 -289 58 17 136
64 170 103 14 15 43 64 65 109 46 94 54 152 34 251 -30 147 -116 225 -343 313
-207 80 -240 102 -259 169 -17 66 0 105 63 134 79 38 139 14 270 -104 l70 -64
12 90 c7 49 15 109 17 134 3 25 8 64 11 87 l7 42 -49 0 c-26 0 -67 7 -91 15
-24 9 -71 18 -105 21 -34 4 -66 7 -72 9 -5 1 -31 -1 -57 -5z"/>
<path d="M6086 1843 c-7 -7 13 -33 26 -33 36 0 138 -179 271 -470 8 -19 32
-71 51 -114 l36 -79 -5 -231 c-6 -266 -6 -270 -45 -353 l-29 -63 173 0 c95 0
175 2 178 5 3 3 -6 27 -19 53 -35 70 -41 131 -39 381 l1 226 44 90 c24 50 76
158 116 240 95 199 152 287 203 314 12 6 22 15 22 19 0 9 -358 7 -367 -2 -4
-4 -6 -24 -5 -44 4 -45 -35 -169 -86 -276 l-38 -79 -47 113 c-62 144 -84 231
-69 265 l12 25 -88 1 c-122 0 -272 8 -281 14 -5 2 -11 2 -15 -2z"/>
</g>
</svg>
